<?xml version="1.0" standalone="no"?>
<!DOCTYPE svg PUBLIC "-//W3C//DTD SVG 20010904//EN"
 "http://www.w3.org/TR/2001/REC-SVG-20010904/DTD/svg10.dtd">
<svg version="1.0" xmlns="http://www.w3.org/2000/svg"
 width="512.000000pt" height="512.000000pt" viewBox="0 0 512.000000 512.000000"
 preserveAspectRatio="xMidYMid meet">
<metadata>
Created by potrace 1.14, written by Peter Selinger 2001-2017
</metadata>
<g transform="translate(0.000000,512.000000) scale(0.100000,-0.100000)"
fill="#000000" stroke="none">
<path d="M3385 4108 c-27 -10 -57 -18 -65 -18 -24 0 -40 -15 -45 -39 -2 -13
-11 -33 -20 -45 -8 -11 -21 -30 -29 -41 -8 -11 -16 -31 -18 -45 -2 -14 -14
-43 -28 -65 -13 -22 -24 -43 -24 -47 -2 -18 -29 -32 -61 -30 -19 2 -35 -2 -35
-8 0 -5 -13 -10 -30 -10 -16 0 -30 -3 -30 -7 -1 -21 -65 -76 -92 -79 -16 -2
-38 -8 -48 -14 -14 -7 -20 -7 -20 0 0 5 -15 10 -32 10 -21 0 -44 9 -62 25 -16
14 -37 23 -45 20 -9 -3 -29 6 -45 20 -28 24 -29 24 -55 6 -14 -10 -34 -21 -44
-24 -10 -4 -15 -11 -12 -17 3 -6 -1 -13 -9 -16 -9 -3 -14 -9 -12 -13 3 -3 1
-22 -3 -40 -4 -23 -13 -35 -26 -38 -11 -1 -48 -7 -83 -12 -35 -5 -70 -15 -77
-21 -8 -7 -27 -9 -47 -5 -18 4 -42 6 -53 6 -77 -2 -122 -8 -134 -15 -8 -5 -28
-12 -45 -15 -19 -4 -32 -14 -34 -25 -2 -11 -13 -28 -23 -39 -10 -12 -19 -23
-20 -26 0 -3 -2 -16 -5 -28 -6 -36 -6 -37 -5 -60 0 -12 8 -29 17 -37 8 -9 11
-16 6 -16 -5 0 -28 -19 -52 -41 l-44 -42 -94 -4 c-52 -2 -105 -8 -119 -14 -13
-5 -29 -7 -34 -3 -5 3 -9 1 -9 -4 0 -10 -26 -7 -60 5 -37 14 -209 22 -216 11
-3 -5 -12 -7 -20 -4 -8 3 -14 1 -14 -5 0 -6 -4 -8 -9 -5 -5 3 -25 8 -45 10
-33 5 -126 59 -134 78 -2 4 -14 8 -27 8 -14 0 -26 8 -30 18 -3 9 -24 29 -46
45 -22 15 -37 32 -34 37 3 6 1 10 -6 10 -7 0 -10 3 -6 6 8 8 -57 64 -74 64 -8
0 -29 9 -47 20 -29 18 -36 19 -66 6 -29 -12 -48 -29 -52 -46 -11 -58 -36 -100
-60 -100 -8 0 -11 -8 -8 -22 21 -93 21 -142 1 -162 -20 -20 -84 -27 -115 -12
-20 8 -27 6 -41 -12 -21 -29 -44 -21 -71 24 -12 18 -24 33 -28 32 -4 -1 -17 3
-29 10 -30 17 -68 6 -84 -25 -13 -25 -62 -57 -71 -47 -10 10 -15 -22 -7 -43 5
-15 17 -23 31 -23 13 0 31 -7 41 -15 10 -7 29 -11 43 -9 13 2 24 0 24 -6 0 -5
6 -10 13 -10 6 0 17 -17 24 -37 9 -30 8 -41 -3 -59 -8 -12 -14 -26 -13 -30 4
-24 -5 -34 -53 -57 -29 -14 -63 -29 -75 -32 -23 -6 -28 -20 -23 -60 4 -34 5
-40 14 -53 4 -7 3 -19 -4 -27 -6 -8 -20 -31 -30 -51 l-19 -36 29 -29 c16 -16
26 -29 23 -29 -3 0 0 -7 7 -15 7 -8 8 -15 3 -15 -5 0 -9 -21 -8 -47 2 -66 -9
-87 -43 -78 -15 4 -34 8 -42 9 -21 4 -66 -9 -62 -18 2 -4 -19 -25 -47 -47 -52
-42 -68 -69 -54 -94 8 -13 12 -13 37 0 25 13 32 13 62 -1 36 -17 37 -19 34
-76 -1 -37 11 -67 42 -99 13 -13 15 -25 9 -41 -8 -22 3 -39 67 -105 13 -13 25
-31 27 -41 2 -9 5 -24 7 -32 3 -15 59 -50 69 -44 4 2 15 -8 25 -23 29 -40 65
-73 75 -67 12 7 80 -46 74 -56 -3 -5 -1 -11 5 -15 5 -3 10 -17 10 -29 0 -15
13 -33 35 -50 19 -15 35 -24 35 -19 0 4 7 -2 15 -14 9 -13 22 -20 30 -17 8 4
15 2 15 -3 0 -5 16 -17 36 -26 19 -10 32 -21 29 -27 -3 -5 3 -18 15 -30 11
-11 20 -24 20 -28 0 -4 9 -14 20 -22 11 -8 25 -29 31 -47 6 -18 14 -31 17 -29
13 7 67 -31 64 -46 -2 -12 13 -16 69 -21 79 -7 109 -26 145 -93 10 -19 24 -34
32 -34 7 0 23 -7 36 -15 13 -9 28 -14 34 -13 5 2 18 -7 28 -20 17 -20 22 -21
44 -9 31 16 83 15 103 -2 10 -8 31 -10 64 -5 33 4 64 1 95 -9 25 -9 60 -13 78
-11 20 4 36 1 40 -6 9 -14 45 2 72 32 9 11 21 17 26 14 15 -9 70 47 78 80 13
51 37 64 77 42 35 -19 50 -18 65 3 8 11 21 19 30 18 10 -1 25 2 35 6 10 4 28
9 40 10 32 4 31 3 57 28 14 12 27 21 30 19 3 -1 5 6 6 17 3 44 26 53 55 20 28
-32 78 -28 117 10 23 24 38 30 57 27 18 -3 32 2 48 18 38 40 57 66 57 77 0 18
44 54 65 53 11 0 31 5 44 10 18 8 26 7 36 -7 6 -9 15 -14 18 -10 4 3 7 1 7 -5
0 -7 8 -12 18 -12 10 0 23 -5 30 -12 9 -9 23 -5 61 15 56 31 83 34 102 11 9
-11 22 -14 43 -10 75 14 85 14 95 3 12 -15 81 -22 81 -8 0 15 60 25 73 12 17
-17 52 -13 72 9 14 16 21 17 39 8 11 -6 24 -15 27 -21 11 -17 63 -17 81 0 10
9 18 12 19 7 0 -16 49 89 49 108 0 16 11 23 33 19 4 0 7 3 7 8 0 6 12 4 27 -4
15 -8 30 -12 35 -9 5 3 15 0 23 -6 8 -7 21 -10 29 -7 8 3 20 -1 26 -8 9 -11
17 -12 31 -4 10 5 19 7 19 3 0 -4 9 5 21 20 11 14 26 26 32 26 7 0 21 24 32
53 14 36 25 51 36 49 39 -6 53 54 21 86 -22 22 -22 23 -4 60 10 20 18 44 17
52 -2 23 15 40 39 40 21 0 116 89 116 108 0 6 5 12 10 14 7 2 7 14 1 36 -12
40 16 111 53 136 17 10 24 23 21 36 -3 14 6 30 26 48 23 21 31 37 33 67 1 22
5 46 9 53 5 6 5 12 0 12 -4 0 -3 4 2 8 6 4 15 16 21 27 6 11 21 21 33 23 11 2
21 11 21 20 0 8 10 26 22 39 12 13 23 36 24 51 4 37 27 102 37 102 5 0 6 4 3
8 -8 14 24 52 43 52 18 0 30 17 37 48 1 7 -4 25 -11 39 -12 23 -11 29 3 49 9
12 18 21 20 19 5 -5 62 57 62 66 0 5 9 9 19 9 13 0 23 11 31 36 17 49 62 123
77 124 6 0 13 5 15 11 2 6 22 11 45 11 35 -1 42 3 47 23 7 27 33 40 52 24 8
-6 14 -8 14 -3 0 5 4 2 10 -6 15 -24 80 -19 109 10 14 14 38 31 53 39 20 10
25 18 18 27 -11 12 11 44 30 44 5 0 25 16 44 35 20 19 31 35 26 35 -14 0 -12
44 2 58 9 9 9 12 0 12 -7 0 -12 6 -10 13 2 7 -3 19 -10 27 -57 67 -62 70 -106
73 -30 2 -47 -2 -50 -10 -3 -7 -16 -13 -30 -13 -27 0 -46 25 -65 83 -7 21 -21
43 -32 50 -10 6 -19 17 -19 24 0 14 -8 16 -55 13 -31 -1 -74 27 -79 52 -10 46
-21 70 -37 79 -11 5 -19 17 -19 26 0 17 -27 42 -46 43 -6 0 -23 -12 -37 -26
-21 -21 -37 -26 -84 -29 -68 -3 -151 -26 -163 -44 -5 -9 -10 -10 -14 -2 -4 6
-16 11 -27 11 -11 0 -22 7 -25 15 -3 8 -14 17 -24 20 -16 5 -35 38 -32 55 0 3
-6 12 -14 21 -8 9 -11 19 -7 22 3 4 1 7 -6 7 -7 0 -9 5 -6 10 3 6 1 11 -4 11
-6 1 -15 2 -21 3 -5 0 -24 17 -42 37 -33 37 -82 57 -93 39 -3 -5 -16 -10 -27
-10 -12 0 -29 -7 -37 -14 -9 -8 -38 -17 -64 -19 -27 -3 -57 -13 -68 -23 -18
-16 -22 -17 -32 -4 -14 17 -30 23 -70 25 -16 1 -32 6 -35 12 -4 5 -28 19 -54
32 -54 25 -100 25 -173 -1z"/>
</g>
</svg>
